<svg width="265" height="258" viewBox="0 0 265 258" fill="none" xmlns="http://www.w3.org/2000/svg">
<rect width="265" height="258" fill="#F6CFBA"/>
<path d="M79.8802 82.74H80.9442L81.2862 91.48H79.8802C79.3229 89.2507 78.2462 87.5027 76.6502 86.236C75.0542 84.9693 73.1289 84.336 70.8742 84.336C69.3289 84.336 67.9482 84.64 66.7322 85.248C65.5162 85.856 64.4902 86.73 63.6542 87.87C62.8182 89.01 62.1722 90.4033 61.7162 92.05C61.2856 93.6967 61.0702 95.5587 61.0702 97.636C61.0702 101.715 61.9189 104.856 63.6162 107.06C65.3136 109.239 67.7709 110.328 70.9882 110.328C75.8776 110.328 79.0189 107.731 80.4122 102.538H81.9702V112H80.6402L79.7662 108.998C77.1062 111.253 73.8889 112.38 70.1142 112.38C67.9609 112.38 66.0102 112.038 64.2622 111.354C62.5396 110.67 61.0576 109.707 59.8162 108.466C58.6002 107.199 57.6502 105.667 56.9662 103.868C56.3076 102.069 55.9782 100.068 55.9782 97.864C55.9782 95.5587 56.3329 93.456 57.0422 91.556C57.7516 89.656 58.7396 88.022 60.0062 86.654C61.2982 85.286 62.8309 84.2347 64.6042 83.5C66.4029 82.74 68.3789 82.36 70.5322 82.36C72.0522 82.36 73.4836 82.5753 74.8262 83.006C76.1689 83.4367 77.6256 84.1333 79.1962 85.096L79.8802 82.74ZM96.515 91.48C97.959 91.48 99.327 91.746 100.619 92.278C101.911 92.7847 103.038 93.494 104.001 94.406C104.989 95.318 105.762 96.4073 106.319 97.674C106.902 98.9153 107.193 100.283 107.193 101.778C107.193 103.323 106.902 104.742 106.319 106.034C105.762 107.326 104.989 108.441 104.001 109.378C103.038 110.315 101.911 111.05 100.619 111.582C99.327 112.114 97.959 112.38 96.515 112.38C95.0964 112.38 93.741 112.127 92.449 111.62C91.1824 111.088 90.0677 110.353 89.105 109.416C88.1424 108.479 87.3824 107.364 86.825 106.072C86.2677 104.755 85.989 103.323 85.989 101.778C85.989 100.283 86.2677 98.9027 86.825 97.636C87.3824 96.3693 88.1424 95.28 89.105 94.368C90.0677 93.456 91.1824 92.7467 92.449 92.24C93.741 91.7333 95.0964 91.48 96.515 91.48ZM96.515 93.304C95.5777 93.304 94.7164 93.5067 93.931 93.912C93.171 94.3173 92.5124 94.9 91.955 95.66C91.423 96.3947 91.005 97.294 90.701 98.358C90.4224 99.3967 90.283 100.549 90.283 101.816C90.283 103.133 90.4224 104.324 90.701 105.388C91.005 106.452 91.423 107.364 91.955 108.124C92.5124 108.859 93.171 109.429 93.931 109.834C94.691 110.239 95.5524 110.442 96.515 110.442C97.4777 110.442 98.3517 110.239 99.137 109.834C99.9224 109.429 100.594 108.846 101.151 108.086C101.708 107.326 102.139 106.414 102.443 105.35C102.747 104.286 102.899 103.108 102.899 101.816C102.899 100.549 102.747 99.3967 102.443 98.358C102.139 97.3193 101.708 96.4327 101.151 95.698C100.594 94.938 99.9224 94.3553 99.137 93.95C98.3517 93.5193 97.4777 93.304 96.515 93.304ZM117.426 105.92C117.426 106.984 117.452 107.82 117.502 108.428C117.553 109.036 117.68 109.505 117.882 109.834C118.11 110.138 118.427 110.341 118.832 110.442C119.238 110.543 119.808 110.619 120.542 110.67V112H110.434V110.67C111.169 110.619 111.752 110.543 112.182 110.442C112.613 110.341 112.942 110.138 113.17 109.834C113.398 109.53 113.538 109.099 113.588 108.542C113.664 107.959 113.702 107.187 113.702 106.224V101.36C113.702 99.916 113.677 98.7127 113.626 97.75C113.601 96.7873 113.538 96.1287 113.436 95.774C113.36 95.4447 113.272 95.1913 113.17 95.014C113.069 94.8113 112.904 94.6593 112.676 94.558C112.448 94.4313 112.144 94.3553 111.764 94.33C111.41 94.2793 110.941 94.254 110.358 94.254V92.924L116.552 91.48L117.046 95.28H117.236C118.376 93.988 119.567 93.038 120.808 92.43C122.075 91.7967 123.468 91.48 124.988 91.48C126.584 91.48 127.927 91.8093 129.016 92.468C130.106 93.1013 130.866 94.026 131.296 95.242H131.448C132.386 94.0513 133.526 93.1267 134.868 92.468C136.211 91.8093 137.642 91.48 139.162 91.48C140.353 91.48 141.43 91.6827 142.392 92.088C143.38 92.468 144.128 93 144.634 93.684C145.09 94.2667 145.407 95.0393 145.584 96.002C145.787 96.9393 145.888 98.2313 145.888 99.878V105.92C145.888 106.959 145.914 107.782 145.964 108.39C146.04 108.998 146.18 109.467 146.382 109.796C146.585 110.125 146.889 110.341 147.294 110.442C147.725 110.543 148.308 110.619 149.042 110.67V112H138.934V110.67C139.644 110.645 140.214 110.581 140.644 110.48C141.075 110.353 141.404 110.138 141.632 109.834C141.86 109.505 142 109.061 142.05 108.504C142.126 107.947 142.164 107.187 142.164 106.224V101.436C142.164 99.992 142.088 98.776 141.936 97.788C141.784 96.7747 141.531 95.964 141.176 95.356C140.822 94.7227 140.353 94.2667 139.77 93.988C139.213 93.7093 138.529 93.57 137.718 93.57C136.604 93.57 135.552 93.8867 134.564 94.52C133.602 95.128 132.842 95.9513 132.284 96.99C132.158 97.2433 132.044 97.4967 131.942 97.75C131.866 97.978 131.803 98.244 131.752 98.548C131.702 98.8267 131.664 99.1687 131.638 99.574C131.638 99.9793 131.638 100.486 131.638 101.094V105.92C131.638 106.959 131.664 107.782 131.714 108.39C131.765 108.998 131.892 109.467 132.094 109.796C132.322 110.125 132.652 110.341 133.082 110.442C133.513 110.543 134.096 110.619 134.83 110.67V112H124.722V110.67C125.432 110.619 126.002 110.543 126.432 110.442C126.863 110.341 127.18 110.138 127.382 109.834C127.61 109.53 127.75 109.099 127.8 108.542C127.876 107.959 127.914 107.187 127.914 106.224V101.436C127.914 99.9667 127.838 98.738 127.686 97.75C127.534 96.7367 127.281 95.926 126.926 95.318C126.597 94.6847 126.154 94.2413 125.596 93.988C125.039 93.7093 124.355 93.57 123.544 93.57C122.404 93.57 121.328 93.8867 120.314 94.52C119.326 95.128 118.579 95.9513 118.072 96.99C117.946 97.2433 117.832 97.4967 117.73 97.75C117.654 97.978 117.591 98.244 117.54 98.548C117.49 98.8267 117.452 99.1687 117.426 99.574C117.426 99.9793 117.426 100.486 117.426 101.094V105.92ZM158.476 105.958C158.476 106.946 158.514 107.744 158.59 108.352C158.691 108.935 158.868 109.403 159.122 109.758C159.375 110.087 159.73 110.315 160.186 110.442C160.642 110.569 161.25 110.645 162.01 110.67V112H151.104V110.67C151.864 110.645 152.484 110.569 152.966 110.442C153.447 110.29 153.814 110.062 154.068 109.758C154.346 109.429 154.524 108.985 154.6 108.428C154.701 107.845 154.752 107.111 154.752 106.224V101.36C154.752 99.8907 154.726 98.6873 154.676 97.75C154.65 96.7873 154.587 96.1287 154.486 95.774C154.359 95.1913 154.068 94.7987 153.612 94.596C153.156 94.368 152.294 94.254 151.028 94.254V92.924L158.476 91.48V105.958ZM154.106 83.766C154.106 83.1073 154.334 82.55 154.79 82.094C155.246 81.638 155.803 81.41 156.462 81.41C157.12 81.41 157.678 81.638 158.134 82.094C158.59 82.55 158.818 83.1073 158.818 83.766C158.818 84.4247 158.59 84.982 158.134 85.438C157.678 85.894 157.12 86.122 156.462 86.122C155.803 86.122 155.246 85.894 154.79 85.438C154.334 84.982 154.106 84.4247 154.106 83.766ZM170.971 106.034C170.971 107.073 170.996 107.896 171.047 108.504C171.097 109.087 171.224 109.543 171.427 109.872C171.655 110.176 171.971 110.379 172.377 110.48C172.807 110.581 173.39 110.657 174.125 110.708V112H164.169V110.708C164.878 110.657 165.435 110.581 165.841 110.48C166.271 110.379 166.601 110.176 166.829 109.872C167.057 109.568 167.196 109.137 167.247 108.58C167.323 108.023 167.361 107.263 167.361 106.3V101.246C167.361 98.2313 167.285 96.3947 167.133 95.736C167.057 95.4067 166.955 95.1407 166.829 94.938C166.727 94.71 166.563 94.5453 166.335 94.444C166.107 94.3173 165.815 94.2413 165.461 94.216C165.106 94.1653 164.65 94.14 164.093 94.14V92.924L170.173 91.48L170.629 95.242H170.781C171.743 94.0513 172.871 93.1267 174.163 92.468C175.455 91.8093 176.861 91.48 178.381 91.48C179.546 91.48 180.61 91.67 181.573 92.05C182.535 92.43 183.27 92.9493 183.777 93.608C184.207 94.1907 184.511 94.9507 184.689 95.888C184.866 96.8 184.955 98.0667 184.955 99.688V106.034C184.955 107.073 184.98 107.896 185.031 108.504C185.107 109.087 185.246 109.543 185.449 109.872C185.651 110.176 185.955 110.379 186.361 110.48C186.791 110.581 187.349 110.657 188.033 110.708V112H178.191V110.708C178.9 110.683 179.457 110.619 179.863 110.518C180.293 110.391 180.61 110.176 180.813 109.872C181.041 109.568 181.18 109.137 181.231 108.58C181.307 107.997 181.345 107.237 181.345 106.3V101.284C181.345 99.84 181.269 98.624 181.117 97.636C180.965 96.648 180.711 95.85 180.357 95.242C180.027 94.634 179.584 94.2033 179.027 93.95C178.469 93.6713 177.798 93.532 177.013 93.532C175.873 93.532 174.821 93.836 173.859 94.444C172.921 95.0267 172.187 95.8373 171.655 96.876C171.528 97.1293 171.414 97.37 171.313 97.598C171.237 97.826 171.173 98.092 171.123 98.396C171.072 98.7 171.034 99.0547 171.009 99.46C170.983 99.84 170.971 100.334 170.971 100.942V106.034ZM199.374 103.83C200.438 103.83 201.261 103.349 201.844 102.386C202.452 101.423 202.756 100.068 202.756 98.32C202.756 96.5973 202.452 95.2673 201.844 94.33C201.261 93.3673 200.425 92.886 199.336 92.886C198.247 92.886 197.373 93.3673 196.714 94.33C196.081 95.2927 195.764 96.61 195.764 98.282C195.764 99.954 196.093 101.297 196.752 102.31C197.411 103.323 198.285 103.83 199.374 103.83ZM197.284 108.276C197.892 108.327 198.449 108.377 198.956 108.428C199.463 108.479 199.957 108.529 200.438 108.58C200.945 108.631 201.439 108.694 201.92 108.77C202.427 108.846 202.971 108.922 203.554 108.998C205.378 109.277 206.835 109.986 207.924 111.126C209.039 112.241 209.596 113.647 209.596 115.344C209.596 117.472 208.747 119.093 207.05 120.208C205.378 121.323 202.946 121.88 199.754 121.88C198.335 121.88 197.031 121.753 195.84 121.5C194.675 121.247 193.674 120.879 192.838 120.398C192.002 119.942 191.343 119.385 190.862 118.726C190.406 118.067 190.178 117.345 190.178 116.56C190.178 116.028 190.267 115.534 190.444 115.078C190.621 114.622 190.862 114.217 191.166 113.862C191.47 113.533 191.825 113.267 192.23 113.064C192.661 112.861 193.104 112.76 193.56 112.76C194.421 112.76 195.194 113.026 195.878 113.558C195.194 113.71 194.637 114.077 194.206 114.66C193.775 115.268 193.56 115.952 193.56 116.712C193.56 117.827 194.105 118.688 195.194 119.296C196.309 119.904 197.879 120.208 199.906 120.208C204.238 120.208 206.404 118.878 206.404 116.218C206.404 115.205 206.062 114.356 205.378 113.672C204.694 113.013 203.883 112.621 202.946 112.494C202.338 112.418 201.705 112.329 201.046 112.228C200.413 112.152 199.779 112.076 199.146 112C198.538 111.924 197.968 111.861 197.436 111.81C196.904 111.759 196.473 111.709 196.144 111.658C194.725 111.506 193.649 111.126 192.914 110.518C192.179 109.91 191.812 109.074 191.812 108.01C191.812 107.123 192.179 106.338 192.914 105.654C193.649 104.97 194.573 104.539 195.688 104.362V104.21C195.131 103.982 194.611 103.665 194.13 103.26C193.649 102.829 193.231 102.348 192.876 101.816C192.547 101.284 192.281 100.714 192.078 100.106C191.875 99.4727 191.774 98.8267 191.774 98.168C191.774 97.2053 191.951 96.3187 192.306 95.508C192.686 94.6973 193.205 94.0007 193.864 93.418C194.548 92.81 195.346 92.3413 196.258 92.012C197.17 91.6573 198.171 91.48 199.26 91.48C200.375 91.48 201.426 91.6573 202.414 92.012C203.402 92.3413 204.251 92.8353 204.96 93.494C205.821 92.7847 206.581 92.278 207.24 91.974C207.899 91.6447 208.519 91.48 209.102 91.48C210.014 91.48 210.736 91.6953 211.268 92.126C211.825 92.5313 212.104 93.0887 212.104 93.798C212.104 94.2287 211.952 94.5707 211.648 94.824C211.369 95.0773 211.015 95.204 210.584 95.204C210.229 95.204 209.938 95.1407 209.71 95.014C209.482 94.8873 209.267 94.7607 209.064 94.634C208.887 94.482 208.697 94.3427 208.494 94.216C208.291 94.0893 208.038 94.026 207.734 94.026C207.126 94.026 206.505 94.2413 205.872 94.672C206.48 95.6093 206.784 96.7873 206.784 98.206C206.784 100.359 206.113 102.057 204.77 103.298C203.427 104.514 201.413 105.223 198.728 105.426C197.183 105.553 196.106 105.717 195.498 105.92C194.89 106.123 194.586 106.49 194.586 107.022C194.586 107.427 194.814 107.731 195.27 107.934C195.726 108.111 196.397 108.225 197.284 108.276ZM69.4101 150.07H70.8161C70.9934 151.21 71.3227 152.236 71.8041 153.148C72.3107 154.06 72.9314 154.833 73.6661 155.466C74.4261 156.099 75.2874 156.593 76.2501 156.948C77.2381 157.277 78.3021 157.442 79.4421 157.442C81.3167 157.442 82.7987 156.999 83.8881 156.112C84.9774 155.225 85.5221 154.022 85.5221 152.502C85.5221 151.869 85.4081 151.286 85.1801 150.754C84.9774 150.222 84.6227 149.715 84.1161 149.234C83.6094 148.727 82.9254 148.233 82.0641 147.752C81.2281 147.271 80.1641 146.751 78.8721 146.194C77.3014 145.51 75.9841 144.851 74.9201 144.218C73.8561 143.585 73.0074 142.926 72.3741 142.242C71.7407 141.558 71.2847 140.836 71.0061 140.076C70.7527 139.291 70.6261 138.404 70.6261 137.416C70.6261 136.251 70.8287 135.174 71.2341 134.186C71.6647 133.198 72.2601 132.349 73.0201 131.64C73.7801 130.905 74.6794 130.348 75.7181 129.968C76.7567 129.563 77.8967 129.36 79.1381 129.36C80.2527 129.36 81.2914 129.537 82.2541 129.892C83.2167 130.247 84.1921 130.817 85.1801 131.602L86.1681 129.892H87.0421L87.4601 137.454H86.0541C85.4461 135.377 84.5594 133.831 83.3941 132.818C82.2541 131.805 80.8734 131.298 79.2521 131.298C77.7067 131.298 76.4781 131.678 75.5661 132.438C74.6541 133.198 74.1981 134.224 74.1981 135.516C74.1981 136.124 74.2994 136.681 74.5021 137.188C74.7047 137.669 75.0341 138.138 75.4901 138.594C75.9461 139.025 76.5414 139.468 77.2761 139.924C78.0107 140.355 78.9227 140.811 80.0121 141.292C81.8867 142.128 83.4447 142.913 84.6861 143.648C85.9274 144.357 86.9154 145.079 87.6501 145.814C88.3847 146.523 88.9041 147.283 89.2081 148.094C89.5121 148.879 89.6641 149.766 89.6641 150.754C89.6641 152.021 89.4107 153.186 88.9041 154.25C88.3974 155.314 87.6881 156.226 86.7761 156.986C85.8641 157.746 84.7747 158.341 83.5081 158.772C82.2414 159.177 80.8481 159.38 79.3281 159.38C77.8841 159.38 76.5794 159.177 75.4141 158.772C74.2741 158.367 73.1087 157.683 71.9181 156.72L70.8541 158.582H69.9801L69.4101 150.07ZM104.048 138.48C105.492 138.48 106.86 138.746 108.152 139.278C109.444 139.785 110.572 140.494 111.534 141.406C112.522 142.318 113.295 143.407 113.852 144.674C114.435 145.915 114.726 147.283 114.726 148.778C114.726 150.323 114.435 151.742 113.852 153.034C113.295 154.326 112.522 155.441 111.534 156.378C110.572 157.315 109.444 158.05 108.152 158.582C106.86 159.114 105.492 159.38 104.048 159.38C102.63 159.38 101.274 159.127 99.9822 158.62C98.7156 158.088 97.6009 157.353 96.6382 156.416C95.6756 155.479 94.9156 154.364 94.3582 153.072C93.8009 151.755 93.5222 150.323 93.5222 148.778C93.5222 147.283 93.8009 145.903 94.3582 144.636C94.9156 143.369 95.6756 142.28 96.6382 141.368C97.6009 140.456 98.7156 139.747 99.9822 139.24C101.274 138.733 102.63 138.48 104.048 138.48ZM104.048 140.304C103.111 140.304 102.25 140.507 101.464 140.912C100.704 141.317 100.046 141.9 99.4882 142.66C98.9562 143.395 98.5382 144.294 98.2342 145.358C97.9556 146.397 97.8162 147.549 97.8162 148.816C97.8162 150.133 97.9556 151.324 98.2342 152.388C98.5382 153.452 98.9562 154.364 99.4882 155.124C100.046 155.859 100.704 156.429 101.464 156.834C102.224 157.239 103.086 157.442 104.048 157.442C105.011 157.442 105.885 157.239 106.67 156.834C107.456 156.429 108.127 155.846 108.684 155.086C109.242 154.326 109.672 153.414 109.976 152.35C110.28 151.286 110.432 150.108 110.432 148.816C110.432 147.549 110.28 146.397 109.976 145.358C109.672 144.319 109.242 143.433 108.684 142.698C108.127 141.938 107.456 141.355 106.67 140.95C105.885 140.519 105.011 140.304 104.048 140.304ZM128.912 138.48C130.356 138.48 131.724 138.746 133.016 139.278C134.308 139.785 135.435 140.494 136.398 141.406C137.386 142.318 138.158 143.407 138.716 144.674C139.298 145.915 139.59 147.283 139.59 148.778C139.59 150.323 139.298 151.742 138.716 153.034C138.158 154.326 137.386 155.441 136.398 156.378C135.435 157.315 134.308 158.05 133.016 158.582C131.724 159.114 130.356 159.38 128.912 159.38C127.493 159.38 126.138 159.127 124.846 158.62C123.579 158.088 122.464 157.353 121.502 156.416C120.539 155.479 119.779 154.364 119.222 153.072C118.664 151.755 118.386 150.323 118.386 148.778C118.386 147.283 118.664 145.903 119.222 144.636C119.779 143.369 120.539 142.28 121.502 141.368C122.464 140.456 123.579 139.747 124.846 139.24C126.138 138.733 127.493 138.48 128.912 138.48ZM128.912 140.304C127.974 140.304 127.113 140.507 126.328 140.912C125.568 141.317 124.909 141.9 124.352 142.66C123.82 143.395 123.402 144.294 123.098 145.358C122.819 146.397 122.68 147.549 122.68 148.816C122.68 150.133 122.819 151.324 123.098 152.388C123.402 153.452 123.82 154.364 124.352 155.124C124.909 155.859 125.568 156.429 126.328 156.834C127.088 157.239 127.949 157.442 128.912 157.442C129.874 157.442 130.748 157.239 131.534 156.834C132.319 156.429 132.99 155.846 133.548 155.086C134.105 154.326 134.536 153.414 134.84 152.35C135.144 151.286 135.296 150.108 135.296 148.816C135.296 147.549 135.144 146.397 134.84 145.358C134.536 144.319 134.105 143.433 133.548 142.698C132.99 141.938 132.319 141.355 131.534 140.95C130.748 140.519 129.874 140.304 128.912 140.304ZM149.633 153.034C149.633 154.073 149.658 154.896 149.709 155.504C149.759 156.087 149.886 156.543 150.089 156.872C150.317 157.176 150.633 157.379 151.039 157.48C151.469 157.581 152.052 157.657 152.787 157.708V159H142.831V157.708C143.54 157.657 144.097 157.581 144.503 157.48C144.933 157.379 145.263 157.176 145.491 156.872C145.719 156.568 145.858 156.137 145.909 155.58C145.985 155.023 146.023 154.263 146.023 153.3V148.246C146.023 145.231 145.947 143.395 145.795 142.736C145.719 142.407 145.617 142.141 145.491 141.938C145.389 141.71 145.225 141.545 144.997 141.444C144.769 141.317 144.477 141.241 144.123 141.216C143.768 141.165 143.312 141.14 142.755 141.14V139.924L148.835 138.48L149.291 142.242H149.443C150.405 141.051 151.533 140.127 152.825 139.468C154.117 138.809 155.523 138.48 157.043 138.48C158.208 138.48 159.272 138.67 160.235 139.05C161.197 139.43 161.932 139.949 162.439 140.608C162.869 141.191 163.173 141.951 163.351 142.888C163.528 143.8 163.617 145.067 163.617 146.688V153.034C163.617 154.073 163.642 154.896 163.693 155.504C163.769 156.087 163.908 156.543 164.111 156.872C164.313 157.176 164.617 157.379 165.023 157.48C165.453 157.581 166.011 157.657 166.695 157.708V159H156.853V157.708C157.562 157.683 158.119 157.619 158.525 157.518C158.955 157.391 159.272 157.176 159.475 156.872C159.703 156.568 159.842 156.137 159.893 155.58C159.969 154.997 160.007 154.237 160.007 153.3V148.284C160.007 146.84 159.931 145.624 159.779 144.636C159.627 143.648 159.373 142.85 159.019 142.242C158.689 141.634 158.246 141.203 157.689 140.95C157.131 140.671 156.46 140.532 155.675 140.532C154.535 140.532 153.483 140.836 152.521 141.444C151.583 142.027 150.849 142.837 150.317 143.876C150.19 144.129 150.076 144.37 149.975 144.598C149.899 144.826 149.835 145.092 149.785 145.396C149.734 145.7 149.696 146.055 149.671 146.46C149.645 146.84 149.633 147.334 149.633 147.942V153.034ZM170.17 156.91C170.17 156.201 170.411 155.605 170.892 155.124C171.373 154.643 171.956 154.402 172.64 154.402C173.349 154.402 173.945 154.643 174.426 155.124C174.907 155.605 175.148 156.201 175.148 156.91C175.148 157.594 174.907 158.177 174.426 158.658C173.945 159.139 173.349 159.38 172.64 159.38C171.956 159.38 171.373 159.139 170.892 158.658C170.411 158.177 170.17 157.594 170.17 156.91ZM180.227 156.91C180.227 156.201 180.467 155.605 180.949 155.124C181.43 154.643 182.013 154.402 182.697 154.402C183.406 154.402 184.001 154.643 184.483 155.124C184.964 155.605 185.205 156.201 185.205 156.91C185.205 157.594 184.964 158.177 184.483 158.658C184.001 159.139 183.406 159.38 182.697 159.38C182.013 159.38 181.43 159.139 180.949 158.658C180.467 158.177 180.227 157.594 180.227 156.91ZM190.283 156.91C190.283 156.201 190.524 155.605 191.005 155.124C191.487 154.643 192.069 154.402 192.753 154.402C193.463 154.402 194.058 154.643 194.539 155.124C195.021 155.605 195.261 156.201 195.261 156.91C195.261 157.594 195.021 158.177 194.539 158.658C194.058 159.139 193.463 159.38 192.753 159.38C192.069 159.38 191.487 159.139 191.005 158.658C190.524 158.177 190.283 157.594 190.283 156.91Z" fill="white"/>
</svg>
